# xmcd
#
# Track frame offsets: 
#        188
#        10313
#        21788
#        33638
#        45150
#        58725
#        70125
#        81300
#        95175
#        111338
#        121913
#        131513
#        142875
#        157538
#        170363
#        180075
#
# Disc length: 2550 seconds
#
# Revision: 2
# Processed by: cddbd v1.5.2PL0 Copyright (c) Steve Scherf et al.
# Submitted via: ExactAudioCopy v0.99pb5
#
DISCID=c609f410
DTITLE=Various Artist - The Yellow Rose Of Texas - Great Country and Western Hi
DTITLE=ts - CD 1
DYEAR=1991
DGENRE=Country
TTITLE0=Bobby Bare - Help me make it through the night
TTITLE1=Dave Dudley - Sentimental journey
TTITLE2=Ferlin Husky - Money greases the wheels
TTITLE3=Billy Grammer - Mabel, you have been a friend to me
TTITLE4=Freddy Quinn - Green green grass of home
TTITLE5=Barbara Perry - I'll hold you closer than love
TTITLE6=Ferlin Husky - The bridge I've never crossed
TTITLE7=George Kent - Doogie Ray
TTITLE8=Bobby Bare - Mary Ann regrets
TTITLE9=Freddy Quinn - Yellow rose of Texas
TTITLE10=Dave Dudley - Rollin' on your track
TTITLE11=Bobby Bare - How I got to Memphis
TTITLE12=Ferlin Husky - There  goes my everything
TTITLE13=Ronnie Rogers - Dan D. Derby
TTITLE14=Norville Dollar - What makes me feel so blue
TTITLE15=Buddy Meredith - A new girl in town
EXTD=
EXTT0=
EXTT1=
EXTT2=
EXTT3=
EXTT4=
EXTT5=
EXTT6=
EXTT7=
EXTT8=
EXTT9=
EXTT10=
EXTT11=
EXTT12=
EXTT13=
EXTT14=
EXTT15=
PLAYORDER=
